<mxfile host="Electron" modified="2023-04-14T14:54:37.848Z" agent="Mozilla/5.0 (Windows NT 10.0; Win64; x64) AppleWebKit/537.36 (KHTML, like Gecko) draw.io/21.1.2 Chrome/106.0.5249.199 Electron/21.4.3 Safari/537.36" etag="gtQgHrBYvllJVQTWdk2Z" version="21.1.2" type="device">
  <diagram name="Page-1" id="ShMyBZudPM3uXLhIpTO5">
    <mxGraphModel dx="3585" dy="941" grid="1" gridSize="10" guides="1" tooltips="1" connect="1" arrows="1" fold="1" page="1" pageScale="1" pageWidth="827" pageHeight="1169" math="0" shadow="0">
      <root>
        <mxCell id="0" />
        <mxCell id="1" parent="0" />
        <mxCell id="_u3ypetCgvbC2G6mTpV0-1" value="&lt;font style=&quot;font-size: 20px;&quot;&gt;ECU 1&lt;/font&gt;" style="swimlane;whiteSpace=wrap;html=1;rounded=1;shadow=0;comic=0;labelBackgroundColor=none;strokeWidth=1;fontFamily=Verdana;fontSize=12;align=center;startSize=30;" parent="1" vertex="1">
          <mxGeometry x="18" y="1190" width="772" height="970" as="geometry">
            <mxRectangle x="10" y="890" width="200" height="30" as="alternateBounds" />
          </mxGeometry>
        </mxCell>
        <mxCell id="_u3ypetCgvbC2G6mTpV0-2" value="HW_init()" style="rounded=1;whiteSpace=wrap;html=1;arcSize=24;fillColor=#ffffc0;strokeColor=#ff0000;shadow=0;comic=0;labelBackgroundColor=none;fontFamily=Verdana;fontSize=12;fontColor=#000000;align=center;" parent="_u3ypetCgvbC2G6mTpV0-1" vertex="1">
          <mxGeometry x="353.68" y="90" width="86.67" height="40" as="geometry" />
        </mxCell>
        <mxCell id="_u3ypetCgvbC2G6mTpV0-3" style="edgeStyle=elbowEdgeStyle;html=1;labelBackgroundColor=none;endArrow=open;endSize=8;strokeColor=#ff0000;fontFamily=Verdana;fontSize=12;align=left;elbow=vertical;exitX=1;exitY=0.5;exitDx=0;exitDy=0;entryX=0.5;entryY=0;entryDx=0;entryDy=0;" parent="_u3ypetCgvbC2G6mTpV0-1" source="_u3ypetCgvbC2G6mTpV0-4" target="_u3ypetCgvbC2G6mTpV0-2" edge="1">
          <mxGeometry relative="1" as="geometry">
            <mxPoint x="414" y="35" as="sourcePoint" />
            <mxPoint x="419" y="75" as="targetPoint" />
            <Array as="points">
              <mxPoint x="412" y="70" />
            </Array>
          </mxGeometry>
        </mxCell>
        <mxCell id="_u3ypetCgvbC2G6mTpV0-4" value="" style="ellipse;html=1;shape=startState;fillColor=#000000;strokeColor=#ff0000;rounded=1;shadow=0;comic=0;labelBackgroundColor=none;fontFamily=Verdana;fontSize=12;fontColor=#000000;align=center;direction=south;" parent="_u3ypetCgvbC2G6mTpV0-1" vertex="1">
          <mxGeometry x="382.02" y="35" width="30" height="30" as="geometry" />
        </mxCell>
        <mxCell id="_u3ypetCgvbC2G6mTpV0-5" value="OS_Schedular()" style="rounded=1;whiteSpace=wrap;html=1;arcSize=24;fillColor=#ffffc0;strokeColor=#ff0000;shadow=0;comic=0;labelBackgroundColor=none;fontFamily=Verdana;fontSize=12;fontColor=#000000;align=center;" parent="_u3ypetCgvbC2G6mTpV0-1" vertex="1">
          <mxGeometry x="332.01" y="180" width="130.01" height="55" as="geometry" />
        </mxCell>
        <mxCell id="_u3ypetCgvbC2G6mTpV0-6" style="edgeStyle=elbowEdgeStyle;html=1;labelBackgroundColor=none;endArrow=open;endSize=8;strokeColor=#ff0000;fontFamily=Verdana;fontSize=12;align=left;elbow=vertical;exitX=0.5;exitY=1;exitDx=0;exitDy=0;entryX=0.5;entryY=0;entryDx=0;entryDy=0;" parent="_u3ypetCgvbC2G6mTpV0-1" source="_u3ypetCgvbC2G6mTpV0-2" target="_u3ypetCgvbC2G6mTpV0-5" edge="1">
          <mxGeometry relative="1" as="geometry">
            <mxPoint x="396.59" y="160" as="sourcePoint" />
            <mxPoint x="412.01" y="190" as="targetPoint" />
            <Array as="points">
              <mxPoint x="392.01" y="140" />
            </Array>
          </mxGeometry>
        </mxCell>
        <mxCell id="_u3ypetCgvbC2G6mTpV0-7" value="Task_Idel()" style="rounded=1;whiteSpace=wrap;html=1;arcSize=24;fillColor=#ffffc0;strokeColor=#ff0000;shadow=0;comic=0;labelBackgroundColor=none;fontFamily=Verdana;fontSize=12;fontColor=#000000;align=center;" parent="_u3ypetCgvbC2G6mTpV0-1" vertex="1">
          <mxGeometry x="332.01" y="270" width="130.01" height="40" as="geometry" />
        </mxCell>
        <mxCell id="_u3ypetCgvbC2G6mTpV0-8" value="Task_SendSpeed()" style="rounded=1;whiteSpace=wrap;html=1;arcSize=24;fillColor=#ffffc0;strokeColor=#ff0000;shadow=0;comic=0;labelBackgroundColor=none;fontFamily=Verdana;fontSize=12;fontColor=#000000;align=center;" parent="_u3ypetCgvbC2G6mTpV0-1" vertex="1">
          <mxGeometry x="332.01" y="360" width="130.01" height="40" as="geometry" />
        </mxCell>
        <mxCell id="_u3ypetCgvbC2G6mTpV0-9" value="Task_SendDoorState()" style="rounded=1;whiteSpace=wrap;html=1;arcSize=24;fillColor=#ffffc0;strokeColor=#ff0000;shadow=0;comic=0;labelBackgroundColor=none;fontFamily=Verdana;fontSize=12;fontColor=#000000;align=center;" parent="_u3ypetCgvbC2G6mTpV0-1" vertex="1">
          <mxGeometry x="322.01" y="420" width="150.01" height="40" as="geometry" />
        </mxCell>
        <mxCell id="_u3ypetCgvbC2G6mTpV0-10" value="Task_SendSwitchState()" style="rounded=1;whiteSpace=wrap;html=1;arcSize=24;fillColor=#ffffc0;strokeColor=#ff0000;shadow=0;comic=0;labelBackgroundColor=none;fontFamily=Verdana;fontSize=12;fontColor=#000000;align=center;" parent="_u3ypetCgvbC2G6mTpV0-1" vertex="1">
          <mxGeometry x="312.01" y="480" width="170.01" height="40" as="geometry" />
        </mxCell>
        <mxCell id="_u3ypetCgvbC2G6mTpV0-11" value="" style="shape=line;html=1;strokeWidth=6;strokeColor=#ff0000;points=[[0,0.5,0,0,0],[0.25,0.5,0,0,0],[0.5,0.5,0,0,0],[0.75,0.5,0,0,0],[1,1,0,0,25]];" parent="_u3ypetCgvbC2G6mTpV0-1" vertex="1">
          <mxGeometry x="522.01" y="290" width="110" height="15" as="geometry" />
        </mxCell>
        <mxCell id="_u3ypetCgvbC2G6mTpV0-12" value="" style="edgeStyle=orthogonalEdgeStyle;rounded=1;orthogonalLoop=1;jettySize=auto;html=1;endSize=8;endArrow=open;endFill=0;strokeColor=#FF0000;exitX=1;exitY=0.5;exitDx=0;exitDy=0;" parent="_u3ypetCgvbC2G6mTpV0-1" source="_u3ypetCgvbC2G6mTpV0-5" target="_u3ypetCgvbC2G6mTpV0-11" edge="1">
          <mxGeometry relative="1" as="geometry">
            <mxPoint x="596.9999999999997" y="200" as="sourcePoint" />
            <mxPoint x="592.0099999999999" y="270" as="targetPoint" />
            <Array as="points">
              <mxPoint x="592.0099999999999" y="200" />
            </Array>
          </mxGeometry>
        </mxCell>
        <mxCell id="_u3ypetCgvbC2G6mTpV0-13" value="ReadyList NOT empty" style="edgeLabel;html=1;align=center;verticalAlign=middle;resizable=0;points=[];" parent="_u3ypetCgvbC2G6mTpV0-12" vertex="1" connectable="0">
          <mxGeometry x="-0.6563" relative="1" as="geometry">
            <mxPoint x="24" as="offset" />
          </mxGeometry>
        </mxCell>
        <mxCell id="_u3ypetCgvbC2G6mTpV0-14" value="" style="edgeStyle=orthogonalEdgeStyle;rounded=1;orthogonalLoop=1;jettySize=auto;html=1;endSize=8;endArrow=open;endFill=0;strokeColor=#FF0000;exitX=0;exitY=0.5;exitDx=0;exitDy=0;entryX=0;entryY=0.75;entryDx=0;entryDy=0;" parent="_u3ypetCgvbC2G6mTpV0-1" source="_u3ypetCgvbC2G6mTpV0-7" target="_u3ypetCgvbC2G6mTpV0-5" edge="1">
          <mxGeometry relative="1" as="geometry">
            <mxPoint x="122.01" y="460" as="sourcePoint" />
            <mxPoint x="312.01" y="200" as="targetPoint" />
            <Array as="points">
              <mxPoint x="300.01" y="290" />
              <mxPoint x="300.01" y="221" />
            </Array>
          </mxGeometry>
        </mxCell>
        <mxCell id="_u3ypetCgvbC2G6mTpV0-15" value="OS_Tick" style="edgeLabel;html=1;align=center;verticalAlign=middle;resizable=0;points=[];" parent="_u3ypetCgvbC2G6mTpV0-14" vertex="1" connectable="0">
          <mxGeometry x="-0.11" y="2" relative="1" as="geometry">
            <mxPoint x="2" y="-7" as="offset" />
          </mxGeometry>
        </mxCell>
        <mxCell id="_u3ypetCgvbC2G6mTpV0-16" value="" style="edgeStyle=orthogonalEdgeStyle;rounded=1;orthogonalLoop=1;jettySize=auto;html=1;endSize=8;endArrow=open;endFill=0;strokeColor=#FF0000;exitX=0.5;exitY=0.5;exitDx=0;exitDy=0;exitPerimeter=0;entryX=1;entryY=0.5;entryDx=0;entryDy=0;" parent="_u3ypetCgvbC2G6mTpV0-1" source="_u3ypetCgvbC2G6mTpV0-11" target="_u3ypetCgvbC2G6mTpV0-9" edge="1">
          <mxGeometry relative="1" as="geometry">
            <mxPoint x="582.0099999999999" y="330" as="sourcePoint" />
            <mxPoint x="617.0099999999999" y="410" as="targetPoint" />
            <Array as="points">
              <mxPoint x="577.0099999999999" y="440" />
            </Array>
          </mxGeometry>
        </mxCell>
        <mxCell id="_u3ypetCgvbC2G6mTpV0-17" value="Task Ready" style="edgeLabel;html=1;align=center;verticalAlign=middle;resizable=0;points=[];" parent="_u3ypetCgvbC2G6mTpV0-16" vertex="1" connectable="0">
          <mxGeometry x="0.611" relative="1" as="geometry">
            <mxPoint as="offset" />
          </mxGeometry>
        </mxCell>
        <mxCell id="_u3ypetCgvbC2G6mTpV0-18" value="" style="edgeStyle=elbowEdgeStyle;rounded=1;orthogonalLoop=1;jettySize=auto;html=1;endSize=8;endArrow=open;endFill=0;strokeColor=#FF0000;exitX=0.25;exitY=0.5;exitDx=0;exitDy=0;exitPerimeter=0;elbow=vertical;entryX=1;entryY=0.5;entryDx=0;entryDy=0;" parent="_u3ypetCgvbC2G6mTpV0-1" source="_u3ypetCgvbC2G6mTpV0-11" target="_u3ypetCgvbC2G6mTpV0-8" edge="1">
          <mxGeometry relative="1" as="geometry">
            <mxPoint x="592.0099999999999" y="335" as="sourcePoint" />
            <mxPoint x="472.00999999999993" y="360" as="targetPoint" />
            <Array as="points">
              <mxPoint x="532.0099999999999" y="380" />
              <mxPoint x="522.0099999999999" y="360" />
            </Array>
          </mxGeometry>
        </mxCell>
        <mxCell id="_u3ypetCgvbC2G6mTpV0-19" value="TaskReady" style="edgeLabel;html=1;align=center;verticalAlign=middle;resizable=0;points=[];" parent="_u3ypetCgvbC2G6mTpV0-18" vertex="1" connectable="0">
          <mxGeometry x="0.1659" y="1" relative="1" as="geometry">
            <mxPoint x="-27" y="-1" as="offset" />
          </mxGeometry>
        </mxCell>
        <mxCell id="_u3ypetCgvbC2G6mTpV0-20" value="" style="edgeStyle=elbowEdgeStyle;rounded=1;orthogonalLoop=1;jettySize=auto;html=1;endSize=8;endArrow=open;endFill=0;strokeColor=#FF0000;entryX=1;entryY=0.5;entryDx=0;entryDy=0;exitX=0.75;exitY=0.5;exitDx=0;exitDy=0;exitPerimeter=0;" parent="_u3ypetCgvbC2G6mTpV0-1" source="_u3ypetCgvbC2G6mTpV0-11" target="_u3ypetCgvbC2G6mTpV0-10" edge="1">
          <mxGeometry relative="1" as="geometry">
            <mxPoint x="602.0099999999999" y="310" as="sourcePoint" />
            <mxPoint x="645.0099999999999" y="420" as="targetPoint" />
            <Array as="points">
              <mxPoint x="605.0099999999999" y="330" />
              <mxPoint x="622.0099999999999" y="500" />
            </Array>
          </mxGeometry>
        </mxCell>
        <mxCell id="_u3ypetCgvbC2G6mTpV0-21" value="TaskReady" style="edgeLabel;html=1;align=center;verticalAlign=middle;resizable=0;points=[];" parent="_u3ypetCgvbC2G6mTpV0-20" vertex="1" connectable="0">
          <mxGeometry x="0.6499" y="-2" relative="1" as="geometry">
            <mxPoint as="offset" />
          </mxGeometry>
        </mxCell>
        <mxCell id="_u3ypetCgvbC2G6mTpV0-22" value="" style="edgeStyle=elbowEdgeStyle;rounded=1;orthogonalLoop=1;jettySize=auto;html=1;endSize=8;endArrow=open;endFill=0;strokeColor=#FF0000;exitX=0.5;exitY=1;exitDx=0;exitDy=0;elbow=vertical;entryX=0.5;entryY=0;entryDx=0;entryDy=0;" parent="_u3ypetCgvbC2G6mTpV0-1" source="_u3ypetCgvbC2G6mTpV0-5" target="_u3ypetCgvbC2G6mTpV0-7" edge="1">
          <mxGeometry relative="1" as="geometry">
            <mxPoint x="600.0199999999999" y="245" as="sourcePoint" />
            <mxPoint x="442.01" y="250" as="targetPoint" />
            <Array as="points">
              <mxPoint x="402.01" y="260" />
            </Array>
          </mxGeometry>
        </mxCell>
        <mxCell id="_u3ypetCgvbC2G6mTpV0-23" value="ReadyList IS empty" style="edgeLabel;html=1;align=center;verticalAlign=middle;resizable=0;points=[];" parent="_u3ypetCgvbC2G6mTpV0-22" vertex="1" connectable="0">
          <mxGeometry x="0.1659" y="1" relative="1" as="geometry">
            <mxPoint x="-1" y="-9" as="offset" />
          </mxGeometry>
        </mxCell>
        <mxCell id="_u3ypetCgvbC2G6mTpV0-26" value="" style="edgeStyle=elbowEdgeStyle;rounded=1;orthogonalLoop=1;jettySize=auto;html=1;endSize=8;endArrow=open;endFill=0;strokeColor=#FF0000;exitX=0;exitY=0.5;exitDx=0;exitDy=0;elbow=vertical;entryX=0;entryY=0.618;entryDx=0;entryDy=0;entryPerimeter=0;" parent="_u3ypetCgvbC2G6mTpV0-1" source="_u3ypetCgvbC2G6mTpV0-8" target="_u3ypetCgvbC2G6mTpV0-5" edge="1">
          <mxGeometry relative="1" as="geometry">
            <mxPoint x="266.01" y="375" as="sourcePoint" />
            <mxPoint x="139.51" y="525" as="targetPoint" />
            <Array as="points">
              <mxPoint x="222.01" y="380" />
              <mxPoint x="282.01" y="380" />
            </Array>
          </mxGeometry>
        </mxCell>
        <mxCell id="_u3ypetCgvbC2G6mTpV0-27" value="TaskDelayed(5ms)" style="edgeLabel;html=1;align=center;verticalAlign=middle;resizable=0;points=[];" parent="_u3ypetCgvbC2G6mTpV0-26" vertex="1" connectable="0">
          <mxGeometry x="-0.5903" relative="1" as="geometry">
            <mxPoint x="19" as="offset" />
          </mxGeometry>
        </mxCell>
        <mxCell id="_u3ypetCgvbC2G6mTpV0-28" value="" style="edgeStyle=elbowEdgeStyle;rounded=1;orthogonalLoop=1;jettySize=auto;html=1;endSize=8;endArrow=open;endFill=0;strokeColor=#FF0000;exitX=0;exitY=0.5;exitDx=0;exitDy=0;elbow=vertical;entryX=0.004;entryY=0.386;entryDx=0;entryDy=0;entryPerimeter=0;" parent="_u3ypetCgvbC2G6mTpV0-1" source="_u3ypetCgvbC2G6mTpV0-9" target="_u3ypetCgvbC2G6mTpV0-5" edge="1">
          <mxGeometry relative="1" as="geometry">
            <mxPoint x="342.01" y="390" as="sourcePoint" />
            <mxPoint x="167.01" y="525" as="targetPoint" />
            <Array as="points">
              <mxPoint x="190.01" y="325" />
              <mxPoint x="292.01" y="390" />
            </Array>
          </mxGeometry>
        </mxCell>
        <mxCell id="_u3ypetCgvbC2G6mTpV0-29" value="TaskDelayed(10ms)" style="edgeLabel;html=1;align=center;verticalAlign=middle;resizable=0;points=[];" parent="_u3ypetCgvbC2G6mTpV0-28" vertex="1" connectable="0">
          <mxGeometry x="-0.5012" y="1" relative="1" as="geometry">
            <mxPoint x="56" y="-1" as="offset" />
          </mxGeometry>
        </mxCell>
        <mxCell id="_u3ypetCgvbC2G6mTpV0-30" value="" style="edgeStyle=elbowEdgeStyle;rounded=1;orthogonalLoop=1;jettySize=auto;html=1;endSize=8;endArrow=open;endFill=0;strokeColor=#FF0000;exitX=0;exitY=0.5;exitDx=0;exitDy=0;elbow=vertical;entryX=0;entryY=0.25;entryDx=0;entryDy=0;" parent="_u3ypetCgvbC2G6mTpV0-1" source="_u3ypetCgvbC2G6mTpV0-10" target="_u3ypetCgvbC2G6mTpV0-5" edge="1">
          <mxGeometry relative="1" as="geometry">
            <mxPoint x="352.01" y="400" as="sourcePoint" />
            <mxPoint x="195.01" y="525" as="targetPoint" />
            <Array as="points">
              <mxPoint x="170.01" y="355" />
              <mxPoint x="302.01" y="400" />
            </Array>
          </mxGeometry>
        </mxCell>
        <mxCell id="_u3ypetCgvbC2G6mTpV0-31" value="TaskDelayed(20ms)" style="edgeLabel;html=1;align=center;verticalAlign=middle;resizable=0;points=[];" parent="_u3ypetCgvbC2G6mTpV0-30" vertex="1" connectable="0">
          <mxGeometry x="-0.4152" y="-3" relative="1" as="geometry">
            <mxPoint x="77" y="36" as="offset" />
          </mxGeometry>
        </mxCell>
        <mxCell id="_u3ypetCgvbC2G6mTpV0-32" value="OS_Loop" style="shape=umlFrame;whiteSpace=wrap;html=1;pointerEvents=0;width=80;height=20;" parent="_u3ypetCgvbC2G6mTpV0-1" vertex="1">
          <mxGeometry x="138.01" y="140" width="514" height="465" as="geometry" />
        </mxCell>
        <mxCell id="_u3ypetCgvbC2G6mTpV0-33" value="" style="ellipse;html=1;shape=endState;fillColor=#000000;strokeColor=#ff0000;rounded=1;shadow=0;comic=0;labelBackgroundColor=none;fontFamily=Verdana;fontSize=12;fontColor=#000000;align=center;" parent="_u3ypetCgvbC2G6mTpV0-1" vertex="1">
          <mxGeometry x="528.01" y="560" width="30" height="30" as="geometry" />
        </mxCell>
        <mxCell id="_u3ypetCgvbC2G6mTpV0-34" value="" style="edgeStyle=orthogonalEdgeStyle;rounded=1;orthogonalLoop=1;jettySize=auto;html=1;endSize=8;strokeColor=#FF0000;endArrow=open;endFill=0;" parent="_u3ypetCgvbC2G6mTpV0-1" source="_u3ypetCgvbC2G6mTpV0-36" target="_u3ypetCgvbC2G6mTpV0-33" edge="1">
          <mxGeometry relative="1" as="geometry" />
        </mxCell>
        <mxCell id="_u3ypetCgvbC2G6mTpV0-35" value="StopSystem" style="edgeLabel;html=1;align=center;verticalAlign=middle;resizable=0;points=[];" parent="_u3ypetCgvbC2G6mTpV0-34" vertex="1" connectable="0">
          <mxGeometry x="0.0997" y="-1" relative="1" as="geometry">
            <mxPoint as="offset" />
          </mxGeometry>
        </mxCell>
        <mxCell id="_u3ypetCgvbC2G6mTpV0-36" value="Engine Stop" style="rounded=1;whiteSpace=wrap;html=1;arcSize=24;fillColor=#FFFFC0;strokeColor=#ff0000;shadow=0;comic=0;labelBackgroundColor=none;fontFamily=Verdana;fontSize=12;fontColor=#000000;align=center;" parent="_u3ypetCgvbC2G6mTpV0-1" vertex="1">
          <mxGeometry x="272.01" y="555" width="130.01" height="40" as="geometry" />
        </mxCell>
        <mxCell id="_u3ypetCgvbC2G6mTpV0-37" value="Task_SendSpeed()" style="shape=folder;align=center;verticalAlign=middle;fontStyle=0;tabWidth=120;tabHeight=30;tabPosition=left;html=1;boundedLbl=1;labelInHeader=1;rounded=1;absoluteArcSize=1;arcSize=10;whiteSpace=wrap;" parent="_u3ypetCgvbC2G6mTpV0-1" vertex="1">
          <mxGeometry x="10" y="620" width="360" height="160" as="geometry" />
        </mxCell>
        <mxCell id="_u3ypetCgvbC2G6mTpV0-38" value="" style="edgeStyle=orthogonalEdgeStyle;rounded=0;orthogonalLoop=1;jettySize=auto;html=1;" parent="_u3ypetCgvbC2G6mTpV0-1" source="_u3ypetCgvbC2G6mTpV0-39" target="_u3ypetCgvbC2G6mTpV0-43" edge="1">
          <mxGeometry relative="1" as="geometry" />
        </mxCell>
        <mxCell id="_u3ypetCgvbC2G6mTpV0-39" value="" style="ellipse;html=1;shape=startState;fillColor=#000000;strokeColor=#ff0000;rounded=1;shadow=0;comic=0;labelBackgroundColor=none;fontFamily=Verdana;fontSize=12;fontColor=#000000;align=center;direction=south;" parent="_u3ypetCgvbC2G6mTpV0-1" vertex="1">
          <mxGeometry x="10" y="667.5" width="30" height="30" as="geometry" />
        </mxCell>
        <mxCell id="_u3ypetCgvbC2G6mTpV0-40" value="" style="rounded=0;orthogonalLoop=1;jettySize=auto;html=1;" parent="_u3ypetCgvbC2G6mTpV0-1" source="_u3ypetCgvbC2G6mTpV0-44" target="_u3ypetCgvbC2G6mTpV0-43" edge="1">
          <mxGeometry relative="1" as="geometry" />
        </mxCell>
        <mxCell id="_u3ypetCgvbC2G6mTpV0-41" value="Fetch" style="edgeLabel;html=1;align=center;verticalAlign=middle;resizable=0;points=[];" parent="_u3ypetCgvbC2G6mTpV0-40" vertex="1" connectable="0">
          <mxGeometry x="-0.0857" relative="1" as="geometry">
            <mxPoint as="offset" />
          </mxGeometry>
        </mxCell>
        <mxCell id="_u3ypetCgvbC2G6mTpV0-42" value="" style="rounded=0;orthogonalLoop=1;jettySize=auto;html=1;" parent="_u3ypetCgvbC2G6mTpV0-1" source="_u3ypetCgvbC2G6mTpV0-43" target="_u3ypetCgvbC2G6mTpV0-47" edge="1">
          <mxGeometry relative="1" as="geometry" />
        </mxCell>
        <mxCell id="_u3ypetCgvbC2G6mTpV0-43" value="Fetch_CarState" style="rounded=1;whiteSpace=wrap;html=1;arcSize=24;fillColor=#ffffc0;strokeColor=#ff0000;shadow=0;comic=0;labelBackgroundColor=none;fontFamily=Verdana;fontSize=12;fontColor=#000000;align=center;" parent="_u3ypetCgvbC2G6mTpV0-1" vertex="1">
          <mxGeometry x="60" y="662.5" width="100" height="40" as="geometry" />
        </mxCell>
        <mxCell id="_u3ypetCgvbC2G6mTpV0-44" value="&lt;font style=&quot;font-size: 10px;&quot;&gt;Car State&lt;br&gt;&lt;/font&gt;" style="ellipse;shape=umlEntity;whiteSpace=wrap;html=1;strokeColor=#FF0000;" parent="_u3ypetCgvbC2G6mTpV0-1" vertex="1">
          <mxGeometry x="24" y="727.5" width="50" height="50" as="geometry" />
        </mxCell>
        <mxCell id="_u3ypetCgvbC2G6mTpV0-46" style="rounded=0;orthogonalLoop=1;jettySize=auto;html=1;entryX=0;entryY=0.5;entryDx=0;entryDy=0;edgeStyle=orthogonalEdgeStyle;exitX=0.5;exitY=1;exitDx=0;exitDy=0;" parent="_u3ypetCgvbC2G6mTpV0-1" source="_u3ypetCgvbC2G6mTpV0-47" target="_u3ypetCgvbC2G6mTpV0-49" edge="1">
          <mxGeometry relative="1" as="geometry" />
        </mxCell>
        <mxCell id="H18m28pX619LUPKuTNql-109" value="Encode Data" style="edgeLabel;html=1;align=center;verticalAlign=middle;resizable=0;points=[];" parent="_u3ypetCgvbC2G6mTpV0-46" vertex="1" connectable="0">
          <mxGeometry x="-0.2782" relative="1" as="geometry">
            <mxPoint y="-7" as="offset" />
          </mxGeometry>
        </mxCell>
        <mxCell id="_u3ypetCgvbC2G6mTpV0-47" value="BCM_SendMsg(CAN)" style="whiteSpace=wrap;html=1;fontFamily=Verdana;fillColor=#ffffc0;strokeColor=#ff0000;fontColor=#000000;rounded=1;arcSize=24;shadow=0;comic=0;labelBackgroundColor=none;" parent="_u3ypetCgvbC2G6mTpV0-1" vertex="1">
          <mxGeometry x="184.99" y="660" width="128.99" height="45" as="geometry" />
        </mxCell>
        <mxCell id="_u3ypetCgvbC2G6mTpV0-49" value="" style="ellipse;html=1;shape=endState;fillColor=#000000;strokeColor=#ff0000;rounded=1;shadow=0;comic=0;labelBackgroundColor=none;fontFamily=Verdana;fontSize=12;fontColor=#000000;align=center;" parent="_u3ypetCgvbC2G6mTpV0-1" vertex="1">
          <mxGeometry x="272.01" y="746" width="30" height="30" as="geometry" />
        </mxCell>
        <mxCell id="_u3ypetCgvbC2G6mTpV0-50" value="Task_SendDoorState()" style="shape=folder;align=center;verticalAlign=middle;fontStyle=0;tabWidth=142;tabHeight=30;tabPosition=left;html=1;boundedLbl=1;labelInHeader=1;rounded=1;absoluteArcSize=1;arcSize=10;whiteSpace=wrap;" parent="_u3ypetCgvbC2G6mTpV0-1" vertex="1">
          <mxGeometry x="388.34" y="620" width="360" height="160" as="geometry" />
        </mxCell>
        <mxCell id="_u3ypetCgvbC2G6mTpV0-51" value="" style="ellipse;html=1;shape=startState;fillColor=#000000;strokeColor=#ff0000;rounded=1;shadow=0;comic=0;labelBackgroundColor=none;fontFamily=Verdana;fontSize=12;fontColor=#000000;align=center;direction=south;" parent="_u3ypetCgvbC2G6mTpV0-1" vertex="1">
          <mxGeometry x="388.34" y="667.5" width="30" height="30" as="geometry" />
        </mxCell>
        <mxCell id="_u3ypetCgvbC2G6mTpV0-52" value="Fetch_DoorState" style="rounded=1;whiteSpace=wrap;html=1;arcSize=24;fillColor=#ffffc0;strokeColor=#ff0000;shadow=0;comic=0;labelBackgroundColor=none;fontFamily=Verdana;fontSize=12;fontColor=#000000;align=center;" parent="_u3ypetCgvbC2G6mTpV0-1" vertex="1">
          <mxGeometry x="438.34" y="662.5" width="111.66" height="40" as="geometry" />
        </mxCell>
        <mxCell id="_u3ypetCgvbC2G6mTpV0-53" value="" style="edgeStyle=orthogonalEdgeStyle;rounded=0;orthogonalLoop=1;jettySize=auto;html=1;" parent="_u3ypetCgvbC2G6mTpV0-1" source="_u3ypetCgvbC2G6mTpV0-51" target="_u3ypetCgvbC2G6mTpV0-52" edge="1">
          <mxGeometry relative="1" as="geometry" />
        </mxCell>
        <mxCell id="_u3ypetCgvbC2G6mTpV0-54" value="&lt;font style=&quot;font-size: 10px;&quot;&gt;DoorState&lt;br&gt;&lt;/font&gt;" style="ellipse;shape=umlEntity;whiteSpace=wrap;html=1;strokeColor=#FF0000;" parent="_u3ypetCgvbC2G6mTpV0-1" vertex="1">
          <mxGeometry x="394.01" y="727.5" width="50" height="50" as="geometry" />
        </mxCell>
        <mxCell id="_u3ypetCgvbC2G6mTpV0-55" value="" style="rounded=0;orthogonalLoop=1;jettySize=auto;html=1;" parent="_u3ypetCgvbC2G6mTpV0-1" source="_u3ypetCgvbC2G6mTpV0-54" target="_u3ypetCgvbC2G6mTpV0-52" edge="1">
          <mxGeometry relative="1" as="geometry" />
        </mxCell>
        <mxCell id="_u3ypetCgvbC2G6mTpV0-56" value="Fetch" style="edgeLabel;html=1;align=center;verticalAlign=middle;resizable=0;points=[];" parent="_u3ypetCgvbC2G6mTpV0-55" vertex="1" connectable="0">
          <mxGeometry x="-0.0857" relative="1" as="geometry">
            <mxPoint as="offset" />
          </mxGeometry>
        </mxCell>
        <mxCell id="_u3ypetCgvbC2G6mTpV0-57" value="BCM_SendMsg(CAN)" style="whiteSpace=wrap;html=1;fontFamily=Verdana;fillColor=#ffffc0;strokeColor=#ff0000;fontColor=#000000;rounded=1;arcSize=24;shadow=0;comic=0;labelBackgroundColor=none;" parent="_u3ypetCgvbC2G6mTpV0-1" vertex="1">
          <mxGeometry x="563.3299999999999" y="660" width="128.99" height="45" as="geometry" />
        </mxCell>
        <mxCell id="_u3ypetCgvbC2G6mTpV0-58" value="" style="rounded=0;orthogonalLoop=1;jettySize=auto;html=1;" parent="_u3ypetCgvbC2G6mTpV0-1" source="_u3ypetCgvbC2G6mTpV0-52" target="_u3ypetCgvbC2G6mTpV0-57" edge="1">
          <mxGeometry relative="1" as="geometry" />
        </mxCell>
        <mxCell id="_u3ypetCgvbC2G6mTpV0-61" value="" style="ellipse;html=1;shape=endState;fillColor=#000000;strokeColor=#ff0000;rounded=1;shadow=0;comic=0;labelBackgroundColor=none;fontFamily=Verdana;fontSize=12;fontColor=#000000;align=center;" parent="_u3ypetCgvbC2G6mTpV0-1" vertex="1">
          <mxGeometry x="662.3199999999998" y="747.5" width="30" height="30" as="geometry" />
        </mxCell>
        <mxCell id="_u3ypetCgvbC2G6mTpV0-62" value="Encode Data" style="rounded=0;orthogonalLoop=1;jettySize=auto;html=1;entryX=0;entryY=0.5;entryDx=0;entryDy=0;edgeStyle=orthogonalEdgeStyle;" parent="_u3ypetCgvbC2G6mTpV0-1" source="_u3ypetCgvbC2G6mTpV0-57" target="_u3ypetCgvbC2G6mTpV0-61" edge="1">
          <mxGeometry x="-0.4566" y="-6" relative="1" as="geometry">
            <mxPoint as="offset" />
          </mxGeometry>
        </mxCell>
        <mxCell id="_u3ypetCgvbC2G6mTpV0-63" value="Task_SendSwitchState()" style="shape=folder;align=center;verticalAlign=middle;fontStyle=0;tabWidth=150;tabHeight=30;tabPosition=left;html=1;boundedLbl=1;labelInHeader=1;rounded=1;absoluteArcSize=1;arcSize=10;whiteSpace=wrap;" parent="_u3ypetCgvbC2G6mTpV0-1" vertex="1">
          <mxGeometry x="10" y="790" width="360" height="160" as="geometry" />
        </mxCell>
        <mxCell id="_u3ypetCgvbC2G6mTpV0-64" value="" style="ellipse;html=1;shape=startState;fillColor=#000000;strokeColor=#ff0000;rounded=1;shadow=0;comic=0;labelBackgroundColor=none;fontFamily=Verdana;fontSize=12;fontColor=#000000;align=center;direction=south;" parent="_u3ypetCgvbC2G6mTpV0-1" vertex="1">
          <mxGeometry x="10" y="837.5" width="30" height="30" as="geometry" />
        </mxCell>
        <mxCell id="_u3ypetCgvbC2G6mTpV0-65" value="Fetch_SwitchState" style="rounded=1;whiteSpace=wrap;html=1;arcSize=24;fillColor=#ffffc0;strokeColor=#ff0000;shadow=0;comic=0;labelBackgroundColor=none;fontFamily=Verdana;fontSize=12;fontColor=#000000;align=center;" parent="_u3ypetCgvbC2G6mTpV0-1" vertex="1">
          <mxGeometry x="50" y="832.5" width="120" height="40" as="geometry" />
        </mxCell>
        <mxCell id="_u3ypetCgvbC2G6mTpV0-66" value="" style="rounded=0;orthogonalLoop=1;jettySize=auto;html=1;" parent="_u3ypetCgvbC2G6mTpV0-1" source="_u3ypetCgvbC2G6mTpV0-64" target="_u3ypetCgvbC2G6mTpV0-65" edge="1">
          <mxGeometry relative="1" as="geometry" />
        </mxCell>
        <mxCell id="_u3ypetCgvbC2G6mTpV0-67" value="&lt;font style=&quot;font-size: 10px;&quot;&gt;Switch State&lt;br&gt;&lt;/font&gt;" style="ellipse;shape=umlEntity;whiteSpace=wrap;html=1;strokeColor=#FF0000;" parent="_u3ypetCgvbC2G6mTpV0-1" vertex="1">
          <mxGeometry x="15" y="897.5" width="50" height="50" as="geometry" />
        </mxCell>
        <mxCell id="_u3ypetCgvbC2G6mTpV0-68" value="" style="rounded=0;orthogonalLoop=1;jettySize=auto;html=1;" parent="_u3ypetCgvbC2G6mTpV0-1" source="_u3ypetCgvbC2G6mTpV0-67" target="_u3ypetCgvbC2G6mTpV0-65" edge="1">
          <mxGeometry relative="1" as="geometry" />
        </mxCell>
        <mxCell id="_u3ypetCgvbC2G6mTpV0-69" value="Fetch" style="edgeLabel;html=1;align=center;verticalAlign=middle;resizable=0;points=[];" parent="_u3ypetCgvbC2G6mTpV0-68" vertex="1" connectable="0">
          <mxGeometry x="-0.0857" relative="1" as="geometry">
            <mxPoint as="offset" />
          </mxGeometry>
        </mxCell>
        <mxCell id="_u3ypetCgvbC2G6mTpV0-70" value="BCM_SendMsg(CAN)" style="whiteSpace=wrap;html=1;fontFamily=Verdana;fillColor=#ffffc0;strokeColor=#ff0000;fontColor=#000000;rounded=1;arcSize=24;shadow=0;comic=0;labelBackgroundColor=none;" parent="_u3ypetCgvbC2G6mTpV0-1" vertex="1">
          <mxGeometry x="184.99" y="830" width="128.99" height="45" as="geometry" />
        </mxCell>
        <mxCell id="_u3ypetCgvbC2G6mTpV0-71" value="" style="rounded=0;orthogonalLoop=1;jettySize=auto;html=1;" parent="_u3ypetCgvbC2G6mTpV0-1" source="_u3ypetCgvbC2G6mTpV0-65" target="_u3ypetCgvbC2G6mTpV0-70" edge="1">
          <mxGeometry relative="1" as="geometry" />
        </mxCell>
        <mxCell id="_u3ypetCgvbC2G6mTpV0-74" value="" style="ellipse;html=1;shape=endState;fillColor=#000000;strokeColor=#ff0000;rounded=1;shadow=0;comic=0;labelBackgroundColor=none;fontFamily=Verdana;fontSize=12;fontColor=#000000;align=center;" parent="_u3ypetCgvbC2G6mTpV0-1" vertex="1">
          <mxGeometry x="272.01" y="917.5" width="30" height="30" as="geometry" />
        </mxCell>
        <mxCell id="_u3ypetCgvbC2G6mTpV0-75" style="rounded=0;orthogonalLoop=1;jettySize=auto;html=1;entryX=0;entryY=0.5;entryDx=0;entryDy=0;edgeStyle=orthogonalEdgeStyle;" parent="_u3ypetCgvbC2G6mTpV0-1" source="_u3ypetCgvbC2G6mTpV0-70" target="_u3ypetCgvbC2G6mTpV0-74" edge="1">
          <mxGeometry relative="1" as="geometry" />
        </mxCell>
        <mxCell id="H18m28pX619LUPKuTNql-108" value="Encode Data" style="edgeLabel;html=1;align=center;verticalAlign=middle;resizable=0;points=[];" parent="_u3ypetCgvbC2G6mTpV0-75" vertex="1" connectable="0">
          <mxGeometry x="0.1898" y="1" relative="1" as="geometry">
            <mxPoint x="1" y="-19" as="offset" />
          </mxGeometry>
        </mxCell>
        <mxCell id="H18m28pX619LUPKuTNql-1" value="&lt;font style=&quot;font-size: 20px;&quot;&gt;ECU 2&lt;/font&gt;" style="swimlane;whiteSpace=wrap;html=1;rounded=1;shadow=0;comic=0;labelBackgroundColor=none;strokeWidth=1;fontFamily=Verdana;fontSize=12;align=center;startSize=30;" parent="1" vertex="1">
          <mxGeometry x="89" y="2368" width="650" height="902" as="geometry">
            <mxRectangle x="10" y="890" width="200" height="30" as="alternateBounds" />
          </mxGeometry>
        </mxCell>
        <mxCell id="H18m28pX619LUPKuTNql-2" value="HW_init()" style="rounded=1;whiteSpace=wrap;html=1;arcSize=24;fillColor=#ffffc0;strokeColor=#ff0000;shadow=0;comic=0;labelBackgroundColor=none;fontFamily=Verdana;fontSize=12;fontColor=#000000;align=center;" parent="H18m28pX619LUPKuTNql-1" vertex="1">
          <mxGeometry x="243.35000000000002" y="92" width="86.67" height="40" as="geometry" />
        </mxCell>
        <mxCell id="H18m28pX619LUPKuTNql-3" style="edgeStyle=elbowEdgeStyle;html=1;labelBackgroundColor=none;endArrow=open;endSize=8;strokeColor=#ff0000;fontFamily=Verdana;fontSize=12;align=left;elbow=vertical;exitX=1;exitY=0.5;exitDx=0;exitDy=0;entryX=0.5;entryY=0;entryDx=0;entryDy=0;" parent="H18m28pX619LUPKuTNql-1" source="H18m28pX619LUPKuTNql-4" target="H18m28pX619LUPKuTNql-2" edge="1">
          <mxGeometry relative="1" as="geometry">
            <mxPoint x="281.68000000000006" y="22" as="sourcePoint" />
            <mxPoint x="286.68000000000006" y="62" as="targetPoint" />
            <Array as="points" />
          </mxGeometry>
        </mxCell>
        <mxCell id="H18m28pX619LUPKuTNql-4" value="" style="ellipse;html=1;shape=startState;fillColor=#000000;strokeColor=#ff0000;rounded=1;shadow=0;comic=0;labelBackgroundColor=none;fontFamily=Verdana;fontSize=12;fontColor=#000000;align=center;direction=south;" parent="H18m28pX619LUPKuTNql-1" vertex="1">
          <mxGeometry x="271.69000000000005" y="42" width="30" height="30" as="geometry" />
        </mxCell>
        <mxCell id="H18m28pX619LUPKuTNql-5" value="OS_Schedular()" style="rounded=1;whiteSpace=wrap;html=1;arcSize=24;fillColor=#ffffc0;strokeColor=#ff0000;shadow=0;comic=0;labelBackgroundColor=none;fontFamily=Verdana;fontSize=12;fontColor=#000000;align=center;" parent="H18m28pX619LUPKuTNql-1" vertex="1">
          <mxGeometry x="184.00000000000006" y="175" width="130.01" height="40" as="geometry" />
        </mxCell>
        <mxCell id="H18m28pX619LUPKuTNql-6" style="edgeStyle=elbowEdgeStyle;html=1;labelBackgroundColor=none;endArrow=open;endSize=8;strokeColor=#ff0000;fontFamily=Verdana;fontSize=12;align=left;elbow=vertical;exitX=0.5;exitY=1;exitDx=0;exitDy=0;entryX=0.5;entryY=0;entryDx=0;entryDy=0;" parent="H18m28pX619LUPKuTNql-1" source="H18m28pX619LUPKuTNql-2" target="H18m28pX619LUPKuTNql-5" edge="1">
          <mxGeometry relative="1" as="geometry">
            <mxPoint x="248.57999999999998" y="155" as="sourcePoint" />
            <mxPoint x="264.00000000000006" y="185" as="targetPoint" />
            <Array as="points" />
          </mxGeometry>
        </mxCell>
        <mxCell id="H18m28pX619LUPKuTNql-7" value="Task_Idel()" style="rounded=1;whiteSpace=wrap;html=1;arcSize=24;fillColor=#ffffc0;strokeColor=#ff0000;shadow=0;comic=0;labelBackgroundColor=none;fontFamily=Verdana;fontSize=12;fontColor=#000000;align=center;" parent="H18m28pX619LUPKuTNql-1" vertex="1">
          <mxGeometry x="184.00000000000006" y="265" width="130.01" height="40" as="geometry" />
        </mxCell>
        <mxCell id="H18m28pX619LUPKuTNql-8" value="Task_OperateDigDevice()" style="rounded=1;whiteSpace=wrap;html=1;arcSize=24;fillColor=#ffff88;strokeColor=#36393d;shadow=0;comic=0;labelBackgroundColor=none;fontFamily=Verdana;fontSize=12;align=center;" parent="H18m28pX619LUPKuTNql-1" vertex="1">
          <mxGeometry x="201.69000000000005" y="395" width="170" height="40" as="geometry" />
        </mxCell>
        <mxCell id="H18m28pX619LUPKuTNql-12" value="" style="edgeStyle=elbowEdgeStyle;rounded=1;orthogonalLoop=1;jettySize=auto;html=1;endSize=8;endArrow=open;endFill=0;strokeColor=#FF0000;exitX=1;exitY=0.5;exitDx=0;exitDy=0;elbow=vertical;entryX=0.5;entryY=0.5;entryDx=0;entryDy=0;entryPerimeter=0;" parent="H18m28pX619LUPKuTNql-1" source="H18m28pX619LUPKuTNql-5" target="H18m28pX619LUPKuTNql-81" edge="1">
          <mxGeometry relative="1" as="geometry">
            <mxPoint x="448.98999999999967" y="195" as="sourcePoint" />
            <mxPoint x="479.67999999999995" y="255" as="targetPoint" />
            <Array as="points">
              <mxPoint x="382.00000000000006" y="190" />
            </Array>
          </mxGeometry>
        </mxCell>
        <mxCell id="H18m28pX619LUPKuTNql-13" value="ReadyList NOT empty" style="edgeLabel;html=1;align=center;verticalAlign=middle;resizable=0;points=[];" parent="H18m28pX619LUPKuTNql-12" vertex="1" connectable="0">
          <mxGeometry x="-0.6563" relative="1" as="geometry">
            <mxPoint x="42" as="offset" />
          </mxGeometry>
        </mxCell>
        <mxCell id="H18m28pX619LUPKuTNql-14" value="" style="edgeStyle=orthogonalEdgeStyle;rounded=1;orthogonalLoop=1;jettySize=auto;html=1;endSize=8;endArrow=open;endFill=0;strokeColor=#FF0000;exitX=0;exitY=0.5;exitDx=0;exitDy=0;entryX=0;entryY=0.75;entryDx=0;entryDy=0;" parent="H18m28pX619LUPKuTNql-1" source="H18m28pX619LUPKuTNql-7" target="H18m28pX619LUPKuTNql-5" edge="1">
          <mxGeometry relative="1" as="geometry">
            <mxPoint x="-26" y="455" as="sourcePoint" />
            <mxPoint x="164.00000000000006" y="195" as="targetPoint" />
            <Array as="points">
              <mxPoint x="154.00000000000006" y="285" />
              <mxPoint x="154.00000000000006" y="205" />
            </Array>
          </mxGeometry>
        </mxCell>
        <mxCell id="H18m28pX619LUPKuTNql-15" value="OS_Tick" style="edgeLabel;html=1;align=center;verticalAlign=middle;resizable=0;points=[];" parent="H18m28pX619LUPKuTNql-14" vertex="1" connectable="0">
          <mxGeometry x="-0.11" y="2" relative="1" as="geometry">
            <mxPoint x="2" y="-7" as="offset" />
          </mxGeometry>
        </mxCell>
        <mxCell id="H18m28pX619LUPKuTNql-22" value="" style="edgeStyle=elbowEdgeStyle;rounded=1;orthogonalLoop=1;jettySize=auto;html=1;endSize=8;endArrow=open;endFill=0;strokeColor=#FF0000;exitX=0.5;exitY=1;exitDx=0;exitDy=0;elbow=vertical;entryX=0.5;entryY=0;entryDx=0;entryDy=0;" parent="H18m28pX619LUPKuTNql-1" source="H18m28pX619LUPKuTNql-5" target="H18m28pX619LUPKuTNql-7" edge="1">
          <mxGeometry relative="1" as="geometry">
            <mxPoint x="452.0099999999999" y="240" as="sourcePoint" />
            <mxPoint x="294.00000000000006" y="245" as="targetPoint" />
            <Array as="points">
              <mxPoint x="254.00000000000006" y="255" />
            </Array>
          </mxGeometry>
        </mxCell>
        <mxCell id="H18m28pX619LUPKuTNql-23" value="ReadyList IS empty" style="edgeLabel;html=1;align=center;verticalAlign=middle;resizable=0;points=[];" parent="H18m28pX619LUPKuTNql-22" vertex="1" connectable="0">
          <mxGeometry x="0.1659" y="1" relative="1" as="geometry">
            <mxPoint x="-1" y="-9" as="offset" />
          </mxGeometry>
        </mxCell>
        <mxCell id="H18m28pX619LUPKuTNql-26" value="" style="edgeStyle=elbowEdgeStyle;rounded=1;orthogonalLoop=1;jettySize=auto;html=1;endSize=8;endArrow=open;endFill=0;strokeColor=#FF0000;exitX=0;exitY=0.5;exitDx=0;exitDy=0;elbow=vertical;entryX=0;entryY=0.25;entryDx=0;entryDy=0;" parent="H18m28pX619LUPKuTNql-1" source="H18m28pX619LUPKuTNql-8" target="H18m28pX619LUPKuTNql-5" edge="1">
          <mxGeometry relative="1" as="geometry">
            <mxPoint x="118" y="370" as="sourcePoint" />
            <mxPoint x="-8.5" y="520" as="targetPoint" />
            <Array as="points">
              <mxPoint x="72" y="290" />
              <mxPoint x="134" y="375" />
            </Array>
          </mxGeometry>
        </mxCell>
        <mxCell id="H18m28pX619LUPKuTNql-27" value="TaskDelayed (5ms)" style="edgeLabel;html=1;align=center;verticalAlign=middle;resizable=0;points=[];" parent="H18m28pX619LUPKuTNql-26" vertex="1" connectable="0">
          <mxGeometry x="-0.5903" relative="1" as="geometry">
            <mxPoint x="44" as="offset" />
          </mxGeometry>
        </mxCell>
        <mxCell id="H18m28pX619LUPKuTNql-32" value="OS_Loop" style="shape=umlFrame;whiteSpace=wrap;html=1;pointerEvents=0;width=80;height=20;" parent="H18m28pX619LUPKuTNql-1" vertex="1">
          <mxGeometry x="30" y="135" width="530" height="367" as="geometry" />
        </mxCell>
        <mxCell id="H18m28pX619LUPKuTNql-33" value="" style="ellipse;html=1;shape=endState;fillColor=#000000;strokeColor=#ff0000;rounded=1;shadow=0;comic=0;labelBackgroundColor=none;fontFamily=Verdana;fontSize=12;fontColor=#000000;align=center;" parent="H18m28pX619LUPKuTNql-1" vertex="1">
          <mxGeometry x="408.00000000000006" y="452" width="30" height="30" as="geometry" />
        </mxCell>
        <mxCell id="H18m28pX619LUPKuTNql-34" value="" style="edgeStyle=orthogonalEdgeStyle;rounded=1;orthogonalLoop=1;jettySize=auto;html=1;endSize=8;strokeColor=#FF0000;endArrow=open;endFill=0;" parent="H18m28pX619LUPKuTNql-1" source="H18m28pX619LUPKuTNql-36" target="H18m28pX619LUPKuTNql-33" edge="1">
          <mxGeometry relative="1" as="geometry" />
        </mxCell>
        <mxCell id="H18m28pX619LUPKuTNql-35" value="StopSystem" style="edgeLabel;html=1;align=center;verticalAlign=middle;resizable=0;points=[];" parent="H18m28pX619LUPKuTNql-34" vertex="1" connectable="0">
          <mxGeometry x="0.0997" y="-1" relative="1" as="geometry">
            <mxPoint x="-14" y="-1" as="offset" />
          </mxGeometry>
        </mxCell>
        <mxCell id="H18m28pX619LUPKuTNql-36" value="Engine Stop" style="rounded=1;whiteSpace=wrap;html=1;arcSize=24;fillColor=#FFFFC0;strokeColor=#ff0000;shadow=0;comic=0;labelBackgroundColor=none;fontFamily=Verdana;fontSize=12;fontColor=#000000;align=center;" parent="H18m28pX619LUPKuTNql-1" vertex="1">
          <mxGeometry x="152" y="447" width="130.01" height="40" as="geometry" />
        </mxCell>
        <mxCell id="H18m28pX619LUPKuTNql-37" value="Task_GetSensorsValues()" style="shape=folder;align=center;verticalAlign=middle;fontStyle=0;tabWidth=172;tabHeight=30;tabPosition=left;html=1;boundedLbl=1;labelInHeader=1;rounded=1;absoluteArcSize=1;arcSize=10;whiteSpace=wrap;fillColor=#ffff88;strokeColor=#36393d;" parent="H18m28pX619LUPKuTNql-1" vertex="1">
          <mxGeometry x="30" y="514" width="549" height="180" as="geometry" />
        </mxCell>
        <mxCell id="H18m28pX619LUPKuTNql-38" value="" style="edgeStyle=orthogonalEdgeStyle;rounded=0;orthogonalLoop=1;jettySize=auto;html=1;entryX=0;entryY=0.5;entryDx=0;entryDy=0;" parent="H18m28pX619LUPKuTNql-1" source="H18m28pX619LUPKuTNql-39" target="H18m28pX619LUPKuTNql-47" edge="1">
          <mxGeometry relative="1" as="geometry">
            <mxPoint x="80" y="577" as="targetPoint" />
          </mxGeometry>
        </mxCell>
        <mxCell id="H18m28pX619LUPKuTNql-39" value="" style="ellipse;html=1;shape=startState;fillColor=#000000;strokeColor=#ff0000;rounded=1;shadow=0;comic=0;labelBackgroundColor=none;fontFamily=Verdana;fontSize=12;fontColor=#000000;align=center;direction=south;" parent="H18m28pX619LUPKuTNql-1" vertex="1">
          <mxGeometry x="30" y="561.5" width="30" height="30" as="geometry" />
        </mxCell>
        <mxCell id="H18m28pX619LUPKuTNql-44" value="&lt;span style=&quot;font-size: 10px;&quot;&gt;Operation&lt;br&gt;&lt;/span&gt;&lt;font style=&quot;font-size: 10px;&quot;&gt;Queue&lt;/font&gt;" style="ellipse;shape=umlEntity;whiteSpace=wrap;html=1;strokeColor=#FF0000;" parent="H18m28pX619LUPKuTNql-1" vertex="1">
          <mxGeometry x="413.34000000000003" y="635.5" width="50" height="50" as="geometry" />
        </mxCell>
        <mxCell id="H18m28pX619LUPKuTNql-45" value="" style="rounded=0;orthogonalLoop=1;jettySize=auto;html=1;" parent="H18m28pX619LUPKuTNql-1" source="H18m28pX619LUPKuTNql-47" target="H18m28pX619LUPKuTNql-48" edge="1">
          <mxGeometry relative="1" as="geometry" />
        </mxCell>
        <mxCell id="H18m28pX619LUPKuTNql-46" style="rounded=0;orthogonalLoop=1;jettySize=auto;html=1;entryX=0;entryY=0.5;entryDx=0;entryDy=0;exitX=1;exitY=0.5;exitDx=0;exitDy=0;" parent="H18m28pX619LUPKuTNql-1" source="H18m28pX619LUPKuTNql-89" target="H18m28pX619LUPKuTNql-49" edge="1">
          <mxGeometry relative="1" as="geometry">
            <mxPoint x="510.99" y="574" as="sourcePoint" />
          </mxGeometry>
        </mxCell>
        <mxCell id="H18m28pX619LUPKuTNql-90" value="" style="edgeStyle=orthogonalEdgeStyle;rounded=0;orthogonalLoop=1;jettySize=auto;html=1;" parent="H18m28pX619LUPKuTNql-1" source="H18m28pX619LUPKuTNql-47" target="H18m28pX619LUPKuTNql-89" edge="1">
          <mxGeometry relative="1" as="geometry" />
        </mxCell>
        <mxCell id="H18m28pX619LUPKuTNql-110" value="Decode Data" style="edgeLabel;html=1;align=center;verticalAlign=middle;resizable=0;points=[];" parent="H18m28pX619LUPKuTNql-90" vertex="1" connectable="0">
          <mxGeometry x="0.1987" y="-3" relative="1" as="geometry">
            <mxPoint x="-23" y="-4" as="offset" />
          </mxGeometry>
        </mxCell>
        <mxCell id="H18m28pX619LUPKuTNql-47" value="BCM_GetMsg(CAN)" style="whiteSpace=wrap;html=1;fontFamily=Verdana;fillColor=#ffffc0;strokeColor=#ff0000;fontColor=#000000;rounded=1;arcSize=24;shadow=0;comic=0;labelBackgroundColor=none;" parent="H18m28pX619LUPKuTNql-1" vertex="1">
          <mxGeometry x="82" y="554" width="128.99" height="45" as="geometry" />
        </mxCell>
        <mxCell id="H18m28pX619LUPKuTNql-48" value="CAN_Transciever" style="whiteSpace=wrap;html=1;fontFamily=Verdana;rounded=1;arcSize=24;shadow=0;comic=0;labelBackgroundColor=none;fillColor=#0050ef;fontColor=#ffffff;strokeColor=#001DBC;" parent="H18m28pX619LUPKuTNql-1" vertex="1">
          <mxGeometry x="82" y="624.5" width="128.99" height="30" as="geometry" />
        </mxCell>
        <mxCell id="H18m28pX619LUPKuTNql-49" value="" style="ellipse;html=1;shape=endState;fillColor=#000000;strokeColor=#ff0000;rounded=1;shadow=0;comic=0;labelBackgroundColor=none;fontFamily=Verdana;fontSize=12;fontColor=#000000;align=center;" parent="H18m28pX619LUPKuTNql-1" vertex="1">
          <mxGeometry x="540.99" y="561.5" width="30" height="30" as="geometry" />
        </mxCell>
        <mxCell id="H18m28pX619LUPKuTNql-76" value="Task_GetSensorsValues()" style="rounded=1;whiteSpace=wrap;html=1;arcSize=24;fillColor=#ffff88;strokeColor=#36393d;shadow=0;comic=0;labelBackgroundColor=none;fontFamily=Verdana;fontSize=12;align=center;" parent="H18m28pX619LUPKuTNql-1" vertex="1">
          <mxGeometry x="202.69" y="345" width="164.99" height="40" as="geometry" />
        </mxCell>
        <mxCell id="H18m28pX619LUPKuTNql-40" value="" style="rounded=0;orthogonalLoop=1;jettySize=auto;html=1;exitX=0.5;exitY=1;exitDx=0;exitDy=0;" parent="H18m28pX619LUPKuTNql-1" source="H18m28pX619LUPKuTNql-89" target="H18m28pX619LUPKuTNql-44" edge="1">
          <mxGeometry relative="1" as="geometry">
            <mxPoint x="211.51443776028214" y="596.5" as="sourcePoint" />
          </mxGeometry>
        </mxCell>
        <mxCell id="H18m28pX619LUPKuTNql-41" value="Push Data" style="edgeLabel;html=1;align=center;verticalAlign=middle;resizable=0;points=[];" parent="H18m28pX619LUPKuTNql-40" vertex="1" connectable="0">
          <mxGeometry x="-0.0857" relative="1" as="geometry">
            <mxPoint y="-4" as="offset" />
          </mxGeometry>
        </mxCell>
        <mxCell id="H18m28pX619LUPKuTNql-81" value="" style="shape=line;html=1;strokeWidth=6;strokeColor=#ff0000;points=[[0,0.5,0,0,0],[0.25,0.5,0,0,0],[0.5,0.5,0,0,0],[0.75,0.5,0,0,0],[1,1,0,0,25]];" parent="H18m28pX619LUPKuTNql-1" vertex="1">
          <mxGeometry x="427.9999999999999" y="235" width="110" height="10" as="geometry" />
        </mxCell>
        <mxCell id="H18m28pX619LUPKuTNql-82" value="" style="edgeStyle=elbowEdgeStyle;rounded=1;orthogonalLoop=1;jettySize=auto;html=1;endSize=8;endArrow=open;endFill=0;strokeColor=#FF0000;exitX=0.25;exitY=0.5;exitDx=0;exitDy=0;entryX=1;entryY=0.5;entryDx=0;entryDy=0;exitPerimeter=0;" parent="H18m28pX619LUPKuTNql-1" source="H18m28pX619LUPKuTNql-81" target="H18m28pX619LUPKuTNql-76" edge="1">
          <mxGeometry relative="1" as="geometry">
            <mxPoint x="339.68" y="320" as="sourcePoint" />
            <mxPoint x="498.67999999999995" y="365" as="targetPoint" />
            <Array as="points">
              <mxPoint x="455.67999999999995" y="305" />
            </Array>
          </mxGeometry>
        </mxCell>
        <mxCell id="H18m28pX619LUPKuTNql-174" value="Priority 1" style="edgeLabel;html=1;align=center;verticalAlign=middle;resizable=0;points=[];" parent="H18m28pX619LUPKuTNql-82" vertex="1" connectable="0">
          <mxGeometry x="-0.6535" y="1" relative="1" as="geometry">
            <mxPoint as="offset" />
          </mxGeometry>
        </mxCell>
        <mxCell id="H18m28pX619LUPKuTNql-84" value="" style="edgeStyle=elbowEdgeStyle;rounded=1;orthogonalLoop=1;jettySize=auto;html=1;endSize=8;endArrow=open;endFill=0;strokeColor=#FF0000;exitX=0.75;exitY=0.5;exitDx=0;exitDy=0;entryX=1;entryY=0.5;entryDx=0;entryDy=0;exitPerimeter=0;" parent="H18m28pX619LUPKuTNql-1" source="H18m28pX619LUPKuTNql-81" target="H18m28pX619LUPKuTNql-8" edge="1">
          <mxGeometry relative="1" as="geometry">
            <mxPoint x="455.67999999999995" y="250" as="sourcePoint" />
            <mxPoint x="372.68" y="375" as="targetPoint" />
            <Array as="points">
              <mxPoint x="509.67999999999995" y="275" />
              <mxPoint x="499.67999999999995" y="335" />
            </Array>
          </mxGeometry>
        </mxCell>
        <mxCell id="H18m28pX619LUPKuTNql-88" value="CAN Bus Data Fetched" style="edgeLabel;html=1;align=center;verticalAlign=middle;resizable=0;points=[];" parent="H18m28pX619LUPKuTNql-84" vertex="1" connectable="0">
          <mxGeometry x="0.5549" relative="1" as="geometry">
            <mxPoint as="offset" />
          </mxGeometry>
        </mxCell>
        <mxCell id="H18m28pX619LUPKuTNql-175" value="Priority2" style="edgeLabel;html=1;align=center;verticalAlign=middle;resizable=0;points=[];" parent="H18m28pX619LUPKuTNql-84" vertex="1" connectable="0">
          <mxGeometry x="-0.7737" relative="1" as="geometry">
            <mxPoint y="23" as="offset" />
          </mxGeometry>
        </mxCell>
        <mxCell id="H18m28pX619LUPKuTNql-85" value="" style="edgeStyle=elbowEdgeStyle;rounded=1;orthogonalLoop=1;jettySize=auto;html=1;endSize=8;endArrow=open;endFill=0;strokeColor=#FF0000;entryX=0;entryY=0.5;entryDx=0;entryDy=0;exitX=0;exitY=0.5;exitDx=0;exitDy=0;" parent="H18m28pX619LUPKuTNql-1" source="H18m28pX619LUPKuTNql-76" target="H18m28pX619LUPKuTNql-5" edge="1">
          <mxGeometry relative="1" as="geometry">
            <mxPoint x="159.68" y="415" as="sourcePoint" />
            <mxPoint x="110.16000000000003" y="225" as="targetPoint" />
            <Array as="points">
              <mxPoint x="89.68" y="275" />
            </Array>
          </mxGeometry>
        </mxCell>
        <mxCell id="H18m28pX619LUPKuTNql-86" value="TaskDelayed (5ms)" style="edgeLabel;html=1;align=center;verticalAlign=middle;resizable=0;points=[];" parent="H18m28pX619LUPKuTNql-85" vertex="1" connectable="0">
          <mxGeometry x="-0.5903" relative="1" as="geometry">
            <mxPoint x="26" as="offset" />
          </mxGeometry>
        </mxCell>
        <mxCell id="H18m28pX619LUPKuTNql-89" value="Push Data To Operation Queue" style="whiteSpace=wrap;html=1;fontFamily=Verdana;fillColor=#ffffc0;strokeColor=#ff0000;fontColor=#000000;rounded=1;arcSize=24;shadow=0;comic=0;labelBackgroundColor=none;" parent="H18m28pX619LUPKuTNql-1" vertex="1">
          <mxGeometry x="371.99" y="554" width="128.99" height="45" as="geometry" />
        </mxCell>
        <mxCell id="H18m28pX619LUPKuTNql-92" value="Task_OperateDigDevice()" style="shape=folder;align=center;verticalAlign=middle;fontStyle=0;tabWidth=172;tabHeight=30;tabPosition=left;html=1;boundedLbl=1;labelInHeader=1;rounded=1;absoluteArcSize=1;arcSize=10;whiteSpace=wrap;fillColor=#ffff88;strokeColor=#36393d;" parent="H18m28pX619LUPKuTNql-1" vertex="1">
          <mxGeometry x="30" y="705" width="609" height="180" as="geometry" />
        </mxCell>
        <mxCell id="H18m28pX619LUPKuTNql-94" value="" style="ellipse;html=1;shape=startState;fillColor=#000000;strokeColor=#ff0000;rounded=1;shadow=0;comic=0;labelBackgroundColor=none;fontFamily=Verdana;fontSize=12;fontColor=#000000;align=center;direction=south;" parent="H18m28pX619LUPKuTNql-1" vertex="1">
          <mxGeometry x="30" y="752.5" width="30" height="30" as="geometry" />
        </mxCell>
        <mxCell id="H18m28pX619LUPKuTNql-95" value="&lt;span style=&quot;font-size: 10px;&quot;&gt;Operation&lt;br&gt;&lt;/span&gt;&lt;font style=&quot;font-size: 10px;&quot;&gt;Queue&lt;/font&gt;" style="ellipse;shape=umlEntity;whiteSpace=wrap;html=1;strokeColor=#FF0000;" parent="H18m28pX619LUPKuTNql-1" vertex="1">
          <mxGeometry x="121.49000000000001" y="825" width="50" height="50" as="geometry" />
        </mxCell>
        <mxCell id="H18m28pX619LUPKuTNql-115" value="" style="edgeStyle=orthogonalEdgeStyle;rounded=0;orthogonalLoop=1;jettySize=auto;html=1;" parent="H18m28pX619LUPKuTNql-1" source="H18m28pX619LUPKuTNql-99" target="H18m28pX619LUPKuTNql-114" edge="1">
          <mxGeometry relative="1" as="geometry" />
        </mxCell>
        <mxCell id="H18m28pX619LUPKuTNql-99" value="Fetch Operation parameters()" style="whiteSpace=wrap;html=1;fontFamily=Verdana;fillColor=#ffffc0;strokeColor=#ff0000;fontColor=#000000;rounded=1;arcSize=24;shadow=0;comic=0;labelBackgroundColor=none;" parent="H18m28pX619LUPKuTNql-1" vertex="1">
          <mxGeometry x="82" y="745" width="128.99" height="45" as="geometry" />
        </mxCell>
        <mxCell id="H18m28pX619LUPKuTNql-93" value="" style="edgeStyle=orthogonalEdgeStyle;rounded=0;orthogonalLoop=1;jettySize=auto;html=1;entryX=0;entryY=0.5;entryDx=0;entryDy=0;" parent="H18m28pX619LUPKuTNql-1" source="H18m28pX619LUPKuTNql-94" target="H18m28pX619LUPKuTNql-99" edge="1">
          <mxGeometry relative="1" as="geometry">
            <mxPoint x="80" y="768" as="targetPoint" />
          </mxGeometry>
        </mxCell>
        <mxCell id="H18m28pX619LUPKuTNql-101" value="" style="ellipse;html=1;shape=endState;fillColor=#000000;strokeColor=#ff0000;rounded=1;shadow=0;comic=0;labelBackgroundColor=none;fontFamily=Verdana;fontSize=12;fontColor=#000000;align=center;" parent="H18m28pX619LUPKuTNql-1" vertex="1">
          <mxGeometry x="599" y="837.5" width="30" height="30" as="geometry" />
        </mxCell>
        <mxCell id="H18m28pX619LUPKuTNql-102" value="" style="rounded=0;orthogonalLoop=1;jettySize=auto;html=1;entryX=0.5;entryY=1;entryDx=0;entryDy=0;" parent="H18m28pX619LUPKuTNql-1" source="H18m28pX619LUPKuTNql-95" target="H18m28pX619LUPKuTNql-99" edge="1">
          <mxGeometry relative="1" as="geometry">
            <mxPoint x="82.52443776028213" y="787.5" as="targetPoint" />
          </mxGeometry>
        </mxCell>
        <mxCell id="H18m28pX619LUPKuTNql-103" value="Fetch Data" style="edgeLabel;html=1;align=center;verticalAlign=middle;resizable=0;points=[];" parent="H18m28pX619LUPKuTNql-102" vertex="1" connectable="0">
          <mxGeometry x="-0.0857" relative="1" as="geometry">
            <mxPoint y="-4" as="offset" />
          </mxGeometry>
        </mxCell>
        <mxCell id="H18m28pX619LUPKuTNql-104" value="Task_OperateDigDevice(&amp;lt;B,LL,RL&amp;gt;)" style="whiteSpace=wrap;html=1;fontFamily=Verdana;fillColor=#ffffc0;strokeColor=#ff0000;fontColor=#000000;rounded=1;arcSize=24;shadow=0;comic=0;labelBackgroundColor=none;" parent="H18m28pX619LUPKuTNql-1" vertex="1">
          <mxGeometry x="329" y="830" width="230" height="45" as="geometry" />
        </mxCell>
        <mxCell id="H18m28pX619LUPKuTNql-97" style="rounded=0;orthogonalLoop=1;jettySize=auto;html=1;entryX=0;entryY=0.5;entryDx=0;entryDy=0;exitX=1;exitY=0.5;exitDx=0;exitDy=0;" parent="H18m28pX619LUPKuTNql-1" source="H18m28pX619LUPKuTNql-104" target="H18m28pX619LUPKuTNql-101" edge="1">
          <mxGeometry relative="1" as="geometry">
            <mxPoint x="464.99" y="850" as="sourcePoint" />
          </mxGeometry>
        </mxCell>
        <mxCell id="H18m28pX619LUPKuTNql-116" value="B, LL ,RL" style="edgeStyle=orthogonalEdgeStyle;rounded=0;orthogonalLoop=1;jettySize=auto;html=1;entryX=0.5;entryY=0;entryDx=0;entryDy=0;" parent="H18m28pX619LUPKuTNql-1" source="H18m28pX619LUPKuTNql-114" target="H18m28pX619LUPKuTNql-104" edge="1">
          <mxGeometry relative="1" as="geometry" />
        </mxCell>
        <mxCell id="H18m28pX619LUPKuTNql-114" value="SysConstrains_Decision()" style="whiteSpace=wrap;html=1;fontFamily=Verdana;fillColor=#d5e8d4;strokeColor=#82b366;rounded=1;arcSize=24;shadow=0;comic=0;labelBackgroundColor=none;" parent="H18m28pX619LUPKuTNql-1" vertex="1">
          <mxGeometry x="303.98" y="745" width="168.01" height="45" as="geometry" />
        </mxCell>
      </root>
    </mxGraphModel>
  </diagram>
</mxfile>
